<svg width="443" height="453" viewBox="0 0 443 453" fill="none" xmlns="http://www.w3.org/2000/svg">
<mask id="mask0_3_59" style="mask-type:alpha" maskUnits="userSpaceOnUse" x="31" y="51" width="398" height="294">
<path d="M109.375 339H31.8359L31.8359 57.75L109.375 57.75L109.375 339ZM428.711 127.477L395.312 141.539C392.708 133.076 389.193 125.328 384.766 118.297C380.469 111.266 375.26 105.276 369.141 100.328C363.151 95.25 356.315 91.3437 348.633 88.6094C340.951 85.7448 332.552 84.3125 323.438 84.3125C313.672 84.3125 304.688 85.9401 296.484 89.1953C288.411 92.3203 281.12 96.6823 274.609 102.281C268.229 107.88 262.63 114.391 257.812 121.812C252.995 129.234 248.958 137.177 245.703 145.641C242.448 153.974 240.039 162.633 238.477 171.617C236.914 180.602 236.133 189.391 236.133 197.984C236.133 211.656 237.695 225.263 240.82 238.805C244.076 252.346 249.154 264.521 256.055 275.328C263.086 286.135 272.135 294.924 283.203 301.695C294.271 308.336 307.682 311.656 323.438 311.656C331.771 311.656 339.648 310.289 347.07 307.555C354.492 304.69 361.198 300.849 367.188 296.031C373.307 291.083 378.646 285.289 383.203 278.648C387.76 272.008 391.406 264.846 394.141 257.164L427.93 270.641C422.982 283.01 416.211 293.883 407.617 303.258C399.023 312.503 389.193 320.185 378.125 326.305C367.188 332.424 355.404 336.982 342.773 339.977C330.273 343.102 317.643 344.664 304.883 344.664C291.081 344.664 277.799 342.971 265.039 339.586C252.409 336.201 240.625 331.383 229.688 325.133C218.75 318.883 208.789 311.331 199.805 302.477C190.951 293.622 183.333 283.792 176.953 272.984C170.703 262.177 165.82 250.458 162.305 237.828C158.919 225.068 157.227 211.786 157.227 197.984C157.227 184.182 158.919 170.966 162.305 158.336C165.82 145.576 170.703 133.792 176.953 122.984C183.333 112.047 190.951 102.151 199.805 93.2969C208.789 84.4427 218.75 76.8906 229.688 70.6406C240.625 64.3906 252.409 59.5729 265.039 56.1875C277.799 52.8021 291.081 51.1094 304.883 51.1094C318.164 51.1094 331.12 52.6719 343.75 55.7969C356.51 58.9219 368.359 63.6745 379.297 70.0547C390.234 76.3047 399.935 84.2474 408.398 93.8828C416.992 103.388 423.763 114.586 428.711 127.477Z" fill="black"/>
</mask>
<g mask="url(#mask0_3_59)">
<path d="M-20.0817 18L67.5 192.5H-107L-20.0817 18Z" fill="#00AEB8"/>
<path d="M-20.0817 367L67.5 192.5H-107L-20.0817 367Z" fill="#F2CB07"/>
<path d="M328.918 18L416.5 192.5H242L328.918 18Z" fill="#F2CB07"/>
<path d="M328.918 367L416.5 192.5H242L328.918 367Z" fill="#00477A"/>
<path d="M154.418 18L242 192.5H67.5L154.418 18Z" fill="#F16E22"/>
<path d="M154.418 367L242 192.5H67.5L154.418 367Z" fill="#00AEB8"/>
<path d="M503.418 18L591 192.5H416.5L503.418 18Z" fill="#0081A8"/>
<path d="M503.418 367L591 192.5H416.5L503.418 367Z" fill="#F2CB07"/>
<path d="M67.5 192.5L154.418 18H-20.0818L67.5 192.5Z" fill="#00477A"/>
<path d="M67.5 192.5L154.418 367H-20.0818L67.5 192.5Z" fill="#0081A8"/>
<path d="M416.5 192.5L503.418 18H328.918L416.5 192.5Z" fill="#F16E22"/>
<path d="M416.5 192.5L503.418 367H328.918L416.5 192.5Z" fill="#0081A8"/>
<path d="M242 192.5L328.918 18H154.418L242 192.5Z" fill="#0081A8"/>
<path d="M242 192.5L328.918 367H154.418L242 192.5Z" fill="#F16E22"/>
</g>
</svg>
