<svg width="21" height="17" viewBox="0 0 21 17" fill="none" xmlns="http://www.w3.org/2000/svg">
<g clip-path="url(#clip0_599_572)">
<path fill-rule="evenodd" clip-rule="evenodd" d="M10.095 16.4114L0.196533 5.08764H6.69238L10.095 16.4114ZM10.4556 0.0187988L7.84253 4.31347H13.2617L10.4556 0.0187988ZM14.0444 4.28442L11.1375 0H16.5122L14.0444 4.28442ZM7.11792 4.32544L9.66431 0H4.20581L7.11792 4.32544ZM17.3821 0.509277L14.8118 4.31347H21L17.3821 0.509277ZM3.8042 0.509277L6.5061 4.31347H0L3.8042 0.509277ZM7.64429 5.05346H13.3916L10.6025 16.2422L7.64429 5.05346ZM11.093 16.4131L20.8735 5.08764H14.3777L11.093 16.4131Z" fill="#00477A"/>
</g>
<defs>
<clipPath id="clip0_599_572">
<rect width="21" height="16.4131" fill="white"/>
</clipPath>
</defs>
</svg>
