<svg width="60" height="60" viewBox="0 0 60 60" fill="none" xmlns="http://www.w3.org/2000/svg">
<path d="M30 48.9668C29.825 49.9052 28.0765 54.306 24.4701 54.3729C18.5966 54.4817 19.9344 50.4462 15.0928 46.9384C10.2511 43.4307 10.5958 40.8802 10.169 38.0033" stroke="white" stroke-width="2" stroke-linecap="round" stroke-linejoin="round"/>
<path d="M12.003 39.8652C8.48214 38.1169 7.83614 29.4501 10.5539 30.8402C10.5539 30.8402 8.10539 22.3652 12.5464 20.1777" stroke="white" stroke-width="2" stroke-linecap="round" stroke-linejoin="round"/>
<path d="M14.1662 23.9695C14.1662 23.9695 10.0641 16.7177 15.9412 13.0645" stroke="white" stroke-width="2" stroke-linecap="round" stroke-linejoin="round"/>
<path d="M16.1659 15.4799C16.1239 15.1751 14.3756 8.8662 21.0873 7.84595" stroke="white" stroke-width="2" stroke-linecap="round" stroke-linejoin="round"/>
<path d="M20.6969 9.18277C20.6969 9.18277 23.5736 1.68277 30.0007 8.46115" stroke="white" stroke-width="2" stroke-linecap="round" stroke-linejoin="round"/>
<path d="M24.475 50.9282C23.2915 50.9892 20.9475 51.4065 17.9415 45.7885" stroke="white" stroke-width="2" stroke-linecap="round" stroke-linejoin="round"/>
<path d="M23.4566 44.3765C24.347 44.5557 25.1671 44.9869 25.8194 45.6189C26.4716 46.2509 26.9285 47.0571 27.1356 47.9413" stroke="white" stroke-width="2" stroke-linecap="round" stroke-linejoin="round"/>
<path d="M16.7639 40.1515C15.8059 39.5427 15.0231 38.6948 14.4927 37.6914C13.9622 36.688 13.7024 35.5636 13.7389 34.4292C14.0264 30.6978 12.6771 29.1792 12.6771 29.1792" stroke="white" stroke-width="2" stroke-linecap="round" stroke-linejoin="round"/>
<path d="M17.06 27.9703C17.06 27.9703 19.1387 27.7128 20.0064 31.014C20.0772 31.3407 20.2332 31.6429 20.4586 31.8898C20.684 32.1367 20.9708 32.3195 21.2897 32.4196C21.6087 32.5198 21.9485 32.5337 22.2745 32.46C22.6006 32.3863 22.9014 32.2276 23.1462 32" stroke="white" stroke-width="2" stroke-linecap="round" stroke-linejoin="round"/>
<path d="M24.056 28.9897C24.056 28.9897 26.4164 29.3647 27.0151 27.6781" stroke="white" stroke-width="2" stroke-linecap="round" stroke-linejoin="round"/>
<path d="M20.7195 27.024C20.9891 25.3752 20.7474 23.6833 20.027 22.1759C18.9663 20.0971 20.4824 16.8016 20.4824 16.8016" stroke="white" stroke-width="2" stroke-linecap="round" stroke-linejoin="round"/>
<path d="M23.1407 15.5858C23.1407 15.5858 19.5271 13.4483 23.7075 9.82251" stroke="white" stroke-width="2" stroke-linecap="round" stroke-linejoin="round"/>
<path d="M25.0065 12.9022C25.6404 16.1147 26.5543 19.5042 24.5976 24.4967" stroke="white" stroke-width="2" stroke-linecap="round" stroke-linejoin="round"/>
<path d="M17.2955 42.9973C17.5284 42.9973 23.0226 43.1566 21.017 38.5848C19.0114 34.0131 17.4531 34.7807 16.9973 30.231" stroke="white" stroke-width="2" stroke-linecap="round" stroke-linejoin="round"/>
<path d="M26.2855 38.4C26.2855 38.4 24.5708 40.8448 20.4646 37.4291" stroke="white" stroke-width="2" stroke-linecap="round" stroke-linejoin="round"/>
<path d="M30 48.9668C30.175 49.9052 31.9235 54.306 35.5299 54.3729C41.4034 54.4817 40.0656 50.4462 44.9073 46.9384C49.7489 43.4307 49.4042 40.8802 49.831 38.0033" stroke="white" stroke-width="2" stroke-linecap="round" stroke-linejoin="round"/>
<path d="M47.997 39.8652C51.5179 38.1169 52.1639 29.4501 49.4461 30.8402C49.4461 30.8402 51.8946 22.3652 47.4536 20.1777" stroke="white" stroke-width="2" stroke-linecap="round" stroke-linejoin="round"/>
<path d="M45.8337 23.9695C45.8337 23.9695 49.9359 16.7177 44.0587 13.0645" stroke="white" stroke-width="2" stroke-linecap="round" stroke-linejoin="round"/>
<path d="M43.8341 15.4799C43.8761 15.1749 45.625 8.8662 38.9125 7.84595" stroke="white" stroke-width="2" stroke-linecap="round" stroke-linejoin="round"/>
<path d="M39.3031 9.18277C39.3031 9.18277 36.4264 1.68277 29.9992 8.46115" stroke="white" stroke-width="2" stroke-linecap="round" stroke-linejoin="round"/>
<path d="M35.525 50.9282C36.7085 50.9892 39.0525 51.4065 42.0585 45.7885" stroke="white" stroke-width="2" stroke-linecap="round" stroke-linejoin="round"/>
<path d="M36.5434 44.3765C35.653 44.5557 34.8329 44.9869 34.1807 45.6189C33.5284 46.2509 33.0715 47.0571 32.8644 47.9413" stroke="white" stroke-width="2" stroke-linecap="round" stroke-linejoin="round"/>
<path d="M43.2361 40.1515C44.1941 39.5427 44.9769 38.6948 45.5073 37.6914C46.0378 36.688 46.2976 35.5636 46.2611 34.4292C45.9736 30.6978 47.3229 29.1792 47.3229 29.1792" stroke="white" stroke-width="2" stroke-linecap="round" stroke-linejoin="round"/>
<path d="M42.94 27.9703C42.94 27.9703 40.8613 27.7128 39.9936 31.014C39.9228 31.3407 39.7668 31.6429 39.5414 31.8898C39.316 32.1367 39.0292 32.3195 38.7103 32.4196C38.3913 32.5198 38.0516 32.5337 37.7255 32.46C37.3994 32.3863 37.0986 32.2276 36.8538 32" stroke="white" stroke-width="2" stroke-linecap="round" stroke-linejoin="round"/>
<path d="M35.944 28.9897C35.944 28.9897 33.5836 29.3647 32.9849 27.6781" stroke="white" stroke-width="2" stroke-linecap="round" stroke-linejoin="round"/>
<path d="M39.2805 27.024C39.0109 25.3752 39.2526 23.6833 39.973 22.1759C41.0337 20.0971 39.5176 16.8016 39.5176 16.8016" stroke="white" stroke-width="2" stroke-linecap="round" stroke-linejoin="round"/>
<path d="M36.8593 15.5858C36.8593 15.5858 40.4729 13.4483 36.2925 9.82251" stroke="white" stroke-width="2" stroke-linecap="round" stroke-linejoin="round"/>
<path d="M34.9935 12.9022C34.3596 16.1147 33.4457 19.5042 35.4024 24.4967" stroke="white" stroke-width="2" stroke-linecap="round" stroke-linejoin="round"/>
<path d="M42.7045 42.9973C42.4716 42.9973 36.9774 43.1566 38.983 38.5848C40.9886 34.0131 42.5469 34.7807 43.0028 30.231" stroke="white" stroke-width="2" stroke-linecap="round" stroke-linejoin="round"/>
<path d="M33.7145 38.4C33.7145 38.4 35.4293 40.8448 39.5354 37.4291" stroke="white" stroke-width="2" stroke-linecap="round" stroke-linejoin="round"/>
<path d="M30 48.9668V8.46155" stroke="white" stroke-width="2" stroke-linecap="round"/>
</svg>
