<svg width="60" height="60" viewBox="0 0 60 60" fill="none" xmlns="http://www.w3.org/2000/svg">
<g clip-path="url(#clip0_72_78)">
<path d="M52.0837 7H7.91632L0 22.8326L30 52.8326L60 22.8326L52.0837 7ZM50.3355 9.82795L55.9914 21.1397H40.6245L38.7389 9.82795H50.3355ZM24.1277 9.82795H35.8723L37.7579 21.1397H22.2421L24.1277 9.82795ZM9.66446 9.82795H21.2611L19.3754 21.1397H4.00856L9.66446 9.82795ZM5.13394 23.9677H19.5545L26.7653 45.599L5.13394 23.9677ZM22.5344 23.9677H37.4658L30 46.3636L22.5344 23.9677ZM33.2347 45.599L40.4455 23.9677H54.8661L33.2347 45.599Z" fill="white"/>
</g>
<defs>
<clipPath id="clip0_72_78">
<rect width="60" height="60" fill="white"/>
</clipPath>
</defs>
</svg>
