<svg width="24" height="11" viewBox="0 0 24 11" fill="none" xmlns="http://www.w3.org/2000/svg">
<path d="M14.0259 2.0352L5.62593 10.2852C5.48565 10.4232 5.29676 10.5005 5.09999 10.5005C4.90322 10.5005 4.71433 10.4232 4.57405 10.2852L0.974053 6.7499C0.903816 6.6808 0.847871 6.5986 0.809411 6.5079C0.770952 6.4172 0.750731 6.3199 0.749904 6.2214C0.749077 6.1229 0.76766 6.0251 0.804591 5.9338C0.841522 5.8425 0.896079 5.7594 0.965146 5.6891C1.03421 5.6189 1.11644 5.5629 1.20713 5.5245C1.29781 5.486 1.39519 5.4658 1.49369 5.465C1.5922 5.4641 1.6899 5.4827 1.78122 5.5197C1.87254 5.5566 1.95569 5.6111 2.02593 5.6802L5.09999 8.699L12.975 0.964598C13.117 0.825098 13.3085 0.747699 13.5076 0.749499C13.6061 0.750399 13.7035 0.770599 13.7942 0.809099C13.8849 0.847699 13.9672 0.903699 14.0362 0.973999C14.1053 1.0443 14.1599 1.1275 14.1968 1.2189C14.2337 1.3102 14.2522 1.408 14.2513 1.5065C14.2505 1.6051 14.2302 1.7025 14.1917 1.7932C14.1532 1.8839 14.0972 1.9661 14.0269 2.0352H14.0259ZM23.0353 0.973999C22.9663 0.903599 22.884 0.847599 22.7933 0.808999C22.7026 0.770499 22.6052 0.750199 22.5066 0.749299C22.4081 0.748399 22.3103 0.766999 22.2189 0.803899C22.1275 0.840899 22.0443 0.895498 21.9741 0.964598L14.0991 8.699L12.3337 6.9646C12.1918 6.8252 12.0002 6.748 11.8013 6.7498C11.6024 6.7517 11.4123 6.8325 11.273 6.9744C11.1336 7.1164 11.0563 7.3079 11.0582 7.5069C11.06 7.7058 11.1408 7.8958 11.2828 8.0352L13.5731 10.2852C13.7134 10.4232 13.9023 10.5005 14.0991 10.5005C14.2958 10.5005 14.4847 10.4232 14.625 10.2852L23.025 2.0352C23.0954 1.9662 23.1515 1.8841 23.1902 1.7934C23.2288 1.7027 23.2492 1.6053 23.2501 1.5067C23.2511 1.4082 23.2326 1.3104 23.1957 1.219C23.1589 1.1275 23.1044 1.0443 23.0353 0.973999Z" fill="#00AEB8"/>
</svg>
