<svg width="15" height="15" viewBox="0 0 15 15" fill="none" xmlns="http://www.w3.org/2000/svg">
<path d="M10.3247 5.79884C10.4121 5.70732 10.5166 5.63449 10.6321 5.58465C10.7477 5.5348 10.8718 5.50893 10.9973 5.50858C11.1228 5.50822 11.2471 5.53338 11.3629 5.58256C11.4787 5.63175 11.5836 5.70398 11.6715 5.795C11.7594 5.88603 11.8286 5.994 11.8748 6.11257C11.9211 6.23115 11.9435 6.35793 11.9409 6.48546C11.9382 6.61299 11.9105 6.73869 11.8594 6.85517C11.8082 6.97165 11.7347 7.07655 11.643 7.16371L8.06761 10.7471C7.89138 10.9231 7.65423 11.0217 7.40721 11.0217C7.16018 11.0217 6.92303 10.9231 6.74681 10.7471L3.22265 7.20962C3.04459 7.03176 2.94333 6.78928 2.94115 6.53552C2.93898 6.28177 3.03606 6.03753 3.21105 5.85654C3.38604 5.67554 3.62459 5.57262 3.87424 5.57041C4.12388 5.5682 4.36416 5.66688 4.54222 5.84475L6.48192 7.799L6.50145 0.916316C6.51205 0.668304 6.61696 0.434161 6.79407 0.263232C6.97118 0.0923044 7.20666 -0.0020574 7.45088 3.40376e-05C7.6951 0.00212548 7.92898 0.100507 8.10323 0.274444C8.27748 0.448381 8.3785 0.684288 8.38499 0.932447L8.36668 7.75681L10.3247 5.79884ZM0 14.0476L0.012207 10.3029C0.00894853 10.1744 0.0311905 10.0465 0.0776068 9.92683C0.124023 9.80719 0.193663 9.69828 0.282375 9.6066C0.371087 9.5149 0.477055 9.44231 0.593959 9.39314C0.710864 9.34397 0.836312 9.31923 0.962825 9.3204C1.08934 9.32157 1.21432 9.34862 1.33033 9.39993C1.44634 9.45125 1.55099 9.52579 1.63805 9.6191C1.72511 9.71241 1.7928 9.82258 1.83707 9.94305C1.88134 10.0635 1.9013 10.1918 1.89575 10.3203L1.8872 13.05C5.63068 13.0575 9.3705 13.0575 13.1067 13.05L13.1152 10.3054C13.1175 10.0514 13.2189 9.80863 13.3973 9.63062C13.5756 9.45261 13.8162 9.35389 14.0661 9.3562C14.3161 9.3585 14.5549 9.46163 14.73 9.6429C14.9051 9.82417 15.0022 10.0687 15 10.3228L14.9878 14.0452H14.9768C14.9658 14.2898 14.863 14.5208 14.6895 14.6907C14.516 14.8606 14.2851 14.9564 14.0442 14.9584C9.67161 14.9667 5.30231 14.9667 0.936277 14.9584C0.695053 14.9577 0.463323 14.8628 0.289043 14.6932C0.114764 14.5237 0.0112771 14.2926 0 14.0476Z" fill="white"/>
</svg>
