<svg width="15" height="16" viewBox="0 0 15 16" fill="none" xmlns="http://www.w3.org/2000/svg">
<path d="M10.3247 6.31666C10.4121 6.22514 10.5166 6.15232 10.6321 6.10247C10.7477 6.05262 10.8718 6.02676 10.9973 6.0264C11.1228 6.02604 11.2471 6.0512 11.3629 6.10039C11.4787 6.14958 11.5836 6.22181 11.6715 6.31283C11.7594 6.40385 11.8286 6.51182 11.8748 6.6304C11.9211 6.74897 11.9435 6.87575 11.9409 7.00328C11.9382 7.13081 11.9105 7.25651 11.8594 7.37299C11.8082 7.48947 11.7347 7.59438 11.643 7.68154L8.06761 11.265C7.89138 11.4409 7.65423 11.5395 7.40721 11.5395C7.16018 11.5395 6.92303 11.4409 6.74681 11.265L3.22265 7.72745C3.04459 7.54958 2.94333 7.3071 2.94115 7.05335C2.93898 6.79959 3.03606 6.55535 3.21105 6.37436C3.38604 6.19337 3.62459 6.09044 3.87424 6.08823C4.12388 6.08602 4.36416 6.18471 4.54222 6.36257L6.48192 8.31682L6.50145 1.43414C6.51205 1.18613 6.61696 0.951983 6.79407 0.781055C6.97118 0.610127 7.20666 0.515765 7.45088 0.517856C7.6951 0.519948 7.92898 0.618329 8.10323 0.792266C8.27748 0.966203 8.3785 1.20211 8.38499 1.45027L8.36668 8.27464L10.3247 6.31666ZM0 14.5655L0.012207 10.8207C0.00894853 10.6922 0.0311905 10.5643 0.0776068 10.4446C0.124023 10.325 0.193663 10.2161 0.282375 10.1244C0.371087 10.0327 0.477055 9.96013 0.593959 9.91096C0.710864 9.86179 0.836312 9.83706 0.962825 9.83822C1.08934 9.83939 1.21432 9.86644 1.33033 9.91776C1.44634 9.96907 1.55099 10.0436 1.63805 10.1369C1.72511 10.2302 1.7928 10.3404 1.83707 10.4609C1.88134 10.5813 1.9013 10.7096 1.89575 10.8381L1.8872 13.5679C5.63068 13.5753 9.3705 13.5753 13.1067 13.5679L13.1152 10.8232C13.1175 10.5692 13.2189 10.3265 13.3973 10.1484C13.5756 9.97043 13.8162 9.87172 14.0661 9.87402C14.3161 9.87632 14.5549 9.97945 14.73 10.1607C14.9051 10.342 15.0022 10.5865 15 10.8406L14.9878 14.563H14.9768C14.9658 14.8076 14.863 15.0387 14.6895 15.2085C14.516 15.3784 14.2851 15.4742 14.0442 15.4762C9.67161 15.4845 5.30231 15.4845 0.936277 15.4762C0.695053 15.4755 0.463323 15.3806 0.289043 15.2111C0.114764 15.0415 0.0112771 14.8104 0 14.5655Z" fill="white"/>
</svg>
