<svg width="60" height="60" viewBox="0 0 60 60" fill="none" xmlns="http://www.w3.org/2000/svg">
<path d="M30 0C13.4325 0 0 13.4306 0 30C0 46.5694 13.4306 60 30 60C46.5694 60 60 46.5694 60 30C60 13.4306 46.5694 0 30 0ZM37.5 4.86188C45.9506 7.38 52.5975 14.0494 55.1194 22.5H42.9581C41.6437 20.2425 39.7594 18.3581 37.5019 17.0475L37.5 4.86188ZM41.2294 30.0113C41.2294 36.2194 36.2025 41.25 30 41.25C23.7975 41.25 18.7706 36.2194 18.7706 30.0113C18.7706 23.8031 23.7975 18.7725 30 18.7725C36.2006 18.7725 41.2294 23.805 41.2294 30.0113ZM26.25 4.03875C27.4744 3.8625 28.725 3.76875 30 3.76875C31.275 3.76875 32.5238 3.86438 33.75 4.03875V15.5119C32.55 15.2025 31.2975 15.0206 30 15.0206C28.7025 15.0206 27.45 15.2025 26.25 15.5119V4.03875ZM22.5 4.86188V17.0475C20.2406 18.36 18.3563 20.2425 17.0438 22.5H4.88062C7.4025 14.0494 14.0494 7.38188 22.5 4.86188ZM3.76875 30.0094C3.76875 28.7306 3.8775 27.48 4.05375 26.25H15.5025C15.1912 27.4519 15.0206 28.71 15.0206 30.0094C15.0206 31.3031 15.1912 32.5537 15.4987 33.75H4.05188C3.8775 32.5275 3.76875 31.2806 3.76875 30.0094ZM22.5 55.155C14.0419 52.635 7.395 45.9562 4.875 37.5H17.0306C18.345 39.765 20.2331 41.6569 22.4981 42.9731V55.1569L22.5 55.155ZM33.75 55.9781C32.5238 56.1525 31.2731 56.25 30 56.25C28.7269 56.25 27.4744 56.1525 26.25 55.9781V44.5069C27.45 44.8181 28.7025 44.9981 30 44.9981C31.2975 44.9981 32.55 44.8162 33.75 44.5069V55.9781ZM37.5 55.155V42.9712C39.765 41.6569 41.655 39.765 42.9675 37.4981H55.1231C52.605 45.9563 45.9544 52.6369 37.5 55.155ZM44.5031 33.75C44.8106 32.5556 44.9813 31.3031 44.9813 30.0094C44.9813 28.7081 44.8106 27.4519 44.4975 26.25H55.9481C56.1244 27.48 56.2331 28.7306 56.2331 30.0094C56.2331 31.2806 56.1244 32.5275 55.95 33.75H44.5031Z" fill="white"/>
</svg>
