<svg width="21" height="20" viewBox="0 0 21 20" fill="none" xmlns="http://www.w3.org/2000/svg">
<path d="M9.10522 18.997C8.82458 18.997 8.55543 18.8864 8.35699 18.6895C8.15854 18.4926 8.04706 18.2256 8.04706 17.9472V10.6194H6.17109C5.89253 10.6194 5.6252 10.5105 5.4271 10.3162C5.229 10.1219 5.11611 9.85792 5.11292 9.58157L5.10083 8.32328C5.10083 8.04485 5.21232 7.77782 5.41076 7.58094C5.6092 7.38406 5.87835 7.27345 6.15899 7.27345H8.05008V5.38227C8.05008 2.55674 9.50279 1 12.1422 1C13.1852 1 14.0967 1.07349 14.1073 1.07349C14.3026 1.08972 14.4845 1.17841 14.6168 1.32185C14.749 1.4653 14.8219 1.65295 14.8208 1.84736V3.76254C14.8204 3.96846 14.7378 4.16583 14.591 4.31143C14.4443 4.45704 14.2453 4.53901 14.0378 4.53941H12.8103C12.5629 4.53941 12.3257 4.6369 12.1508 4.81044C11.9759 4.98397 11.8776 5.21934 11.8776 5.46476L11.8534 7.26446H13.7279C13.8773 7.26505 14.025 7.29705 14.161 7.35834C14.2971 7.41963 14.4186 7.50883 14.5174 7.62005C14.6162 7.73127 14.6902 7.86201 14.7344 8.00364C14.7786 8.14527 14.7921 8.29459 14.774 8.44176L14.6228 9.69855C14.5925 9.95336 14.4692 10.1883 14.2762 10.3591C14.0832 10.5299 13.8338 10.6246 13.5752 10.6254H11.8489V17.9502C11.8489 18.2286 11.7374 18.4956 11.539 18.6925C11.3405 18.8894 11.0714 19 10.7907 19L9.10522 18.997Z" fill="white"/>
</svg>
