<svg width="556" height="88" viewBox="0 0 556 88" fill="none" xmlns="http://www.w3.org/2000/svg">
<path d="M15.0933 67.1431H0V12.3736H15.0933V67.1431ZM94.172 41.5081C94.172 44.5255 93.8172 47.6695 93.1074 50.9406C92.3978 54.2114 91.3965 57.4063 90.104 60.5252C88.8366 63.6186 87.3033 66.5472 85.5036 69.3112C83.7042 72.0748 81.7019 74.4711 79.4968 76.4995L74.6684 73.8752C75.4034 72.5568 76.0751 71.0734 76.6834 69.4251C77.2918 67.7769 77.8493 66.0401 78.3562 64.2145C78.863 62.3887 79.3066 60.5125 79.6868 58.5854C80.067 56.6583 80.3839 54.7439 80.6373 52.8422C80.9163 50.9151 81.119 49.0514 81.2456 47.2513C81.3723 45.4509 81.4356 43.7647 81.4356 42.1925C81.4356 41.3051 81.4104 40.3415 81.3598 39.3019C81.3089 38.2625 81.195 37.2229 81.0175 36.1833C80.8654 35.1436 80.6245 34.1546 80.2952 33.2165C79.9656 32.253 79.5096 31.4037 78.9266 30.6681C78.3689 29.9076 77.6593 29.3117 76.7974 28.8807C75.9611 28.4242 74.9471 28.196 73.7561 28.196C72.59 28.196 71.5889 28.513 70.7524 29.1468C69.9414 29.7554 69.2445 30.5541 68.6616 31.5431C68.0786 32.5318 67.6096 33.6475 67.2549 34.89C66.9252 36.1324 66.6719 37.3875 66.4944 38.6554C66.3171 39.8978 66.1902 41.0896 66.1142 42.2307C66.0636 43.3716 66.0381 44.3352 66.0381 45.1214V67.1431H53.2259V46.6805C53.2259 45.7931 53.2387 44.7283 53.2641 43.4858C53.2893 42.218 53.2514 40.8995 53.1499 39.5301C53.0738 38.161 52.909 36.8043 52.6557 35.4607C52.4276 34.0913 52.0474 32.8743 51.515 31.8092C51.0082 30.7442 50.3113 29.8821 49.4242 29.2229C48.5371 28.5382 47.4218 28.196 46.0785 28.196C44.9378 28.196 43.9749 28.513 43.189 29.1468C42.4288 29.7809 41.7823 30.6047 41.25 31.6192C40.7431 32.6079 40.3377 33.7363 40.0335 35.0042C39.7548 36.2466 39.5394 37.5017 39.3873 38.7696C39.2604 40.012 39.1846 41.2038 39.1591 42.3447C39.1337 43.4604 39.121 44.386 39.121 45.1214V67.1431H26.2327V23.2136H31.1752L35.8895 33.4448C36.9541 29.8949 38.6268 27.1309 40.9079 25.1532C43.2144 23.15 46.2684 22.1485 50.0704 22.1485C53.492 22.1485 56.3308 22.8584 58.5865 24.2784C60.8424 25.6984 62.6166 28.0059 63.9091 31.2006C64.6441 29.8061 65.4552 28.5509 66.3423 27.4352C67.2549 26.3195 68.2559 25.3687 69.3457 24.5827C70.461 23.7968 71.6904 23.2009 73.0335 22.7951C74.3769 22.364 75.8596 22.1485 77.4818 22.1485C80.4727 22.1485 83.0198 22.6429 85.1234 23.6319C87.2527 24.5955 88.9887 25.9394 90.3321 27.6635C91.6755 29.3878 92.6511 31.4416 93.2595 33.8251C93.8678 36.1833 94.172 38.7442 94.172 41.5081ZM146.942 67.1431H134.092V61.8943C132.571 63.9736 130.734 65.5203 128.579 66.5345C126.449 67.5235 124.105 68.0178 121.546 68.0178C118.2 68.0178 115.209 67.422 112.573 66.2302C109.937 65.0387 107.706 63.4159 105.882 61.3618C104.057 59.2828 102.663 56.8486 101.7 54.0592C100.737 51.2701 100.255 48.2782 100.255 45.0832C100.255 41.8882 100.737 38.8963 101.7 36.1072C102.663 33.3181 104.057 30.8963 105.882 28.8425C107.706 26.7633 109.937 25.128 112.573 23.9362C115.209 22.7444 118.2 22.1485 121.546 22.1485C123.243 22.1485 124.853 22.4022 126.373 22.9093C127.92 23.4164 129.327 24.139 130.594 25.0771C131.886 25.99 133.015 27.1057 133.978 28.4242C134.967 29.7173 135.74 31.1627 136.296 32.7601L142 23.2136H146.942V67.1431ZM134.014 45.0832C134.014 43.9423 133.952 42.7378 133.825 41.4699C133.724 40.2021 133.534 38.9469 133.254 37.7045C132.976 36.4621 132.584 35.2831 132.075 34.1674C131.595 33.0265 130.962 32.0247 130.176 31.1627C129.415 30.2752 128.491 29.5778 127.401 29.0707C126.311 28.5636 125.042 28.31 123.599 28.31C122.153 28.31 120.9 28.5764 119.836 29.1089C118.769 29.616 117.858 30.3131 117.097 31.2006C116.337 32.0629 115.703 33.0644 115.196 34.2055C114.715 35.3464 114.334 36.5382 114.056 37.7806C113.777 39.023 113.574 40.2782 113.447 41.546C113.346 42.7884 113.295 43.9675 113.295 45.0832C113.295 46.1989 113.346 47.3907 113.447 48.6585C113.574 49.9261 113.777 51.1813 114.056 52.424C114.334 53.6664 114.715 54.8581 115.196 55.999C115.703 57.1402 116.337 58.1544 117.097 59.0418C117.858 59.9039 118.769 60.6013 119.836 61.1336C120.9 61.6409 122.153 61.8943 123.599 61.8943C124.917 61.8943 126.083 61.6282 127.095 61.0957C128.136 60.5379 129.034 59.8026 129.794 58.8897C130.581 57.9768 131.24 56.9371 131.772 55.7708C132.304 54.6045 132.735 53.4 133.064 52.1576C133.394 50.9151 133.635 49.6854 133.788 48.4682C133.939 47.2258 134.014 46.0974 134.014 45.0832ZM201.918 61.8564C201.918 65.3554 201.396 68.6519 200.358 71.7454C199.32 74.8388 197.812 77.5391 195.834 79.8466C193.856 82.1793 191.424 84.0176 188.533 85.3615C185.671 86.7306 182.4 87.4153 178.725 87.4153C176.698 87.4153 174.645 87.1871 172.566 86.7306C170.513 86.2744 168.562 85.5643 166.711 84.6008C164.887 83.6627 163.238 82.4581 161.769 80.9875C160.324 79.5423 159.184 77.8307 158.346 75.853L163.898 73.761C164.38 75.0034 165.001 76.1446 165.761 77.1842C166.548 78.2238 167.446 79.1113 168.46 79.8466C169.475 80.6071 170.589 81.1905 171.806 81.5961C173.023 82.0271 174.303 82.2426 175.644 82.2426C178.18 82.2426 180.295 81.7228 181.995 80.6832C183.719 79.6438 185.1 78.2872 186.138 76.6137C187.178 74.9401 187.926 73.0384 188.383 70.9085C188.837 68.8038 189.065 66.6615 189.065 64.4807V61.8943C187.544 63.9736 185.707 65.5203 183.553 66.5345C181.424 67.5235 179.081 68.0178 176.519 68.0178C173.174 68.0178 170.184 67.422 167.547 66.2302C164.913 65.0387 162.68 63.4159 160.856 61.3618C159.031 59.2828 157.638 56.8486 156.675 54.0592C155.712 51.2701 155.229 48.2782 155.229 45.0832C155.229 41.8882 155.712 38.8963 156.675 36.1072C157.638 33.3181 159.031 30.8963 160.856 28.8425C162.68 26.7633 164.913 25.128 167.547 23.9362C170.184 22.7444 173.174 22.1485 176.519 22.1485C178.219 22.1485 179.828 22.4022 181.349 22.9093C182.893 23.4164 184.3 24.139 185.569 25.0771C186.862 25.99 187.988 27.1057 188.951 28.4242C189.94 29.7173 190.713 31.1627 191.271 32.7601L196.973 23.2136H201.918V61.8564ZM188.99 45.0832C188.99 43.9423 188.928 42.7378 188.801 41.4699C188.699 40.2021 188.51 38.9469 188.23 37.7045C187.952 36.4621 187.557 35.2831 187.051 34.1674C186.568 33.0265 185.935 32.0247 185.151 31.1627C184.391 30.2752 183.464 29.5778 182.374 29.0707C181.284 28.5636 180.018 28.31 178.572 28.31C177.129 28.31 175.873 28.5764 174.809 29.1089C173.745 29.616 172.831 30.3131 172.073 31.2006C171.313 32.0629 170.677 33.0644 170.171 34.2055C169.691 35.3464 169.309 36.5382 169.031 37.7806C168.751 39.023 168.549 40.2782 168.421 41.546C168.32 42.7884 168.271 43.9675 168.271 45.0832C168.271 46.1989 168.32 47.3907 168.421 48.6585C168.549 49.9261 168.751 51.1813 169.031 52.424C169.309 53.6664 169.691 54.8581 170.171 55.999C170.677 57.1402 171.313 58.1544 172.073 59.0418C172.831 59.9039 173.745 60.6013 174.809 61.1336C175.873 61.6409 177.129 61.8943 178.572 61.8943C179.891 61.8943 181.056 61.6282 182.071 61.0957C183.109 60.5379 184.009 59.8026 184.77 58.8897C185.556 57.9768 186.216 56.9371 186.748 55.7708C187.28 54.6045 187.71 53.4 188.04 52.1576C188.37 50.9151 188.611 49.6854 188.762 48.4682C188.915 47.2258 188.99 46.0974 188.99 45.0832ZM226.172 12.6018C226.172 13.5654 225.982 14.4783 225.603 15.3403C225.248 16.2026 224.752 16.9504 224.119 17.5845C223.485 18.2183 222.738 18.7253 221.876 19.1057C221.015 19.4607 220.101 19.6383 219.138 19.6383C218.175 19.6383 217.264 19.4607 216.403 19.1057C215.564 18.7253 214.83 18.2183 214.197 17.5845C213.563 16.9504 213.057 16.2026 212.676 15.3403C212.32 14.4783 212.144 13.5654 212.144 12.6018C212.144 11.6383 212.32 10.7383 212.676 9.90149C213.057 9.03946 213.563 8.29141 214.197 7.65735C214.83 7.02355 215.564 6.52919 216.403 6.17425C217.264 5.79387 218.175 5.60355 219.138 5.60355C220.101 5.60355 221.015 5.79387 221.876 6.17425C222.738 6.52919 223.485 7.02355 224.119 7.65735C224.752 8.29141 225.248 9.03946 225.603 9.90149C225.982 10.7383 226.172 11.6383 226.172 12.6018ZM225.603 67.1431H212.715V23.2515H225.603V67.1431ZM281.298 41.9643C281.298 44.931 280.932 48.0245 280.198 51.2449C279.486 54.465 278.487 57.6218 277.192 60.7153C275.9 63.8087 274.355 66.7121 272.554 69.4251C270.756 72.1636 268.778 74.5218 266.624 76.4995L261.796 73.8752C262.481 72.6074 263.128 71.1874 263.735 69.6152C264.342 68.0433 264.887 66.3823 265.37 64.6328C265.876 62.8579 266.32 61.0323 266.699 59.1558C267.106 57.2796 267.436 55.4286 267.688 53.603C267.968 51.752 268.17 49.9643 268.298 48.24C268.448 46.4905 268.526 44.8677 268.526 43.3716C268.526 42.3829 268.487 41.3305 268.412 40.2148C268.334 39.0739 268.17 37.9455 267.916 36.8298C267.688 35.6886 267.371 34.5984 266.966 33.5587C266.561 32.5191 266.016 31.6065 265.331 30.8202C264.672 30.0343 263.862 29.4005 262.899 28.9186C261.96 28.4369 260.846 28.196 259.554 28.196C258.285 28.196 257.158 28.4876 256.169 29.0707C255.18 29.6287 254.306 30.3765 253.545 31.3149C252.785 32.2275 252.126 33.2799 251.568 34.4717C251.036 35.6635 250.592 36.8931 250.239 38.161C249.909 39.4034 249.668 40.6331 249.515 41.8503C249.364 43.0673 249.289 44.1578 249.289 45.1214V67.1431H236.4V23.2136H241.342L247.233 33.4448C247.945 31.7459 248.832 30.1992 249.896 28.8046C250.96 27.41 252.165 26.2183 253.506 25.2293C254.851 24.2405 256.333 23.4798 257.955 22.9472C259.603 22.4147 261.378 22.1485 263.278 22.1485C266.32 22.1485 268.97 22.6429 271.225 23.6319C273.481 24.6206 275.355 26.0027 276.852 27.7777C278.347 29.5272 279.46 31.6192 280.198 34.0534C280.932 36.4621 281.298 39.0991 281.298 41.9643Z" fill="#00477A"/>
<path d="M339.769 25.8464L333.265 28.5993C332.756 26.9427 332.074 25.4259 331.212 24.0496C330.373 22.673 329.36 21.5005 328.169 20.5319C327.003 19.538 325.671 18.7732 324.175 18.2378C322.677 17.6772 321.044 17.3966 319.268 17.3966C317.368 17.3966 315.618 17.7153 314.021 18.3524C312.447 18.9642 311.027 19.8183 309.76 20.9143C308.517 22.0103 307.426 23.2848 306.489 24.7376C305.551 26.1907 304.765 27.7455 304.131 29.4022C303.498 31.0335 303.028 32.7288 302.724 34.4875C302.42 36.2463 302.267 37.9669 302.267 39.6491C302.267 42.3255 302.571 44.9892 303.181 47.6403C303.814 50.2912 304.804 52.6745 306.146 54.79C307.517 56.9058 309.277 58.6261 311.432 59.9516C313.59 61.2517 316.199 61.9016 319.268 61.9016C320.891 61.9016 322.425 61.6341 323.869 61.0987C325.315 60.5381 326.621 59.7861 327.787 58.8428C328.979 57.8741 330.02 56.74 330.905 55.4399C331.793 54.1401 332.505 52.7382 333.037 51.2342L339.616 53.8723C338.653 56.294 337.334 58.4223 335.659 60.2575C333.987 62.0673 332.074 63.5713 329.919 64.7694C327.787 65.9672 325.492 66.8593 323.033 67.4455C320.6 68.0574 318.139 68.3633 315.654 68.3633C312.967 68.3633 310.381 68.032 307.896 67.3691C305.437 66.7063 303.142 65.7633 301.013 64.5399C298.881 63.3163 296.942 61.8379 295.194 60.1045C293.468 58.3714 291.985 56.4469 290.744 54.3311C289.527 52.2156 288.576 49.9216 287.891 47.449C287.231 44.9511 286.902 42.3511 286.902 39.6491C286.902 36.9473 287.231 34.3602 287.891 31.8876C288.576 29.3897 289.527 27.0828 290.744 24.9671C291.985 22.826 293.468 20.8887 295.194 19.1556C296.942 17.4222 298.881 15.9438 301.013 14.7202C303.142 13.4968 305.437 12.5537 307.896 11.891C310.381 11.2283 312.967 10.8968 315.654 10.8968C318.24 10.8968 320.764 11.2027 323.222 11.8145C325.707 12.4261 328.015 13.3566 330.144 14.6056C332.276 15.8292 334.164 17.3841 335.812 19.2702C337.487 21.1309 338.803 23.3229 339.769 25.8464ZM385.102 26.9936L377.876 39.0375C377.573 38.0178 377.181 36.8709 376.698 35.5963C376.217 34.3218 375.62 33.1365 374.911 32.0405C374.2 30.919 373.351 29.9887 372.362 29.2495C371.372 28.4847 370.233 28.1024 368.94 28.1024C367.748 28.1024 366.707 28.4083 365.821 29.0201C364.959 29.6316 364.222 30.4348 363.614 31.4287C363.007 32.3973 362.498 33.5061 362.093 34.7551C361.714 35.9787 361.408 37.2277 361.182 38.5022C360.977 39.7512 360.839 40.962 360.761 42.1345C360.686 43.2814 360.647 44.2756 360.647 45.1168V67.2545H347.756V23.0938H352.699L357.91 33.3787C358.619 31.7218 359.432 30.2053 360.343 28.8288C361.257 27.4268 362.308 26.2288 363.5 25.2349C364.692 24.2151 366.037 23.425 367.532 22.8643C369.054 22.3034 370.765 22.0231 372.665 22.0231C373.655 22.0231 374.758 22.1123 375.976 22.2906C377.194 22.4436 378.385 22.7242 379.551 23.1319C380.717 23.5142 381.794 24.024 382.784 24.6611C383.773 25.2985 384.547 26.0758 385.102 26.9936ZM433.823 67.2545H420.969V61.9781C419.447 64.0683 417.609 65.6231 415.454 66.6427C413.325 67.6369 410.978 68.1338 408.418 68.1338C405.071 68.1338 402.08 67.5348 399.442 66.3368C396.804 65.139 394.574 63.5076 392.749 61.4427C390.923 59.3528 389.529 56.9058 388.563 54.1017C387.6 51.2979 387.12 48.2902 387.12 45.0785C387.12 41.8667 387.6 38.859 388.563 36.0552C389.529 33.2514 390.923 30.8169 392.749 28.7523C394.574 26.6621 396.804 25.0182 399.442 23.8202C402.08 22.6221 405.071 22.0231 408.418 22.0231C410.116 22.0231 411.726 22.2781 413.247 22.7878C414.794 23.2976 416.202 24.024 417.469 24.9671C418.762 25.8848 419.891 27.0064 420.854 28.3318C421.844 29.6316 422.617 31.0847 423.176 32.6905L428.88 23.0938H433.823V67.2545ZM420.893 45.0785C420.893 43.9316 420.828 42.7207 420.701 41.4462C420.6 40.1716 420.41 38.9099 420.133 37.6609C419.852 36.412 419.46 35.2267 418.954 34.1052C418.471 32.9583 417.837 31.9513 417.051 31.0847C416.29 30.1926 415.366 29.4915 414.275 28.9817C413.185 28.4719 411.918 28.2169 410.471 28.2169C409.025 28.2169 407.771 28.4847 406.707 29.0201C405.642 29.5298 404.728 30.2307 403.968 31.1228C403.207 31.9896 402.573 32.9964 402.067 34.1435C401.584 35.2904 401.205 36.4885 400.925 37.7374C400.647 38.9864 400.444 40.2481 400.317 41.5227C400.216 42.7716 400.164 43.9569 400.164 45.0785C400.164 46.2 400.216 47.3981 400.317 48.6726C400.444 49.9469 400.647 51.2086 400.925 52.4578C401.205 53.7068 401.584 54.9048 402.067 56.0517C402.573 57.1989 403.207 58.2184 403.968 59.1106C404.728 59.9771 405.642 60.6782 406.707 61.2133C407.771 61.7233 409.025 61.9781 410.471 61.9781C411.79 61.9781 412.956 61.7105 413.971 61.1752C415.01 60.6145 415.911 59.8753 416.672 58.9576C417.456 58.0399 418.115 56.9948 418.648 55.8223C419.18 54.6498 419.611 53.439 419.941 52.19C420.27 50.9411 420.512 49.7049 420.665 48.4813C420.815 47.2323 420.893 46.098 420.893 45.0785ZM485.624 4.93212L478.359 17.0145C478.284 16.0458 478.107 14.9371 477.827 13.6878C477.549 12.4136 477.079 11.2155 476.42 10.0939C475.786 8.97236 474.898 8.02932 473.758 7.26455C472.642 6.47446 471.211 6.07928 469.461 6.07928C467.66 6.07928 466.216 6.43609 465.125 7.14996C464.035 7.86357 463.199 8.93399 462.615 10.3615C462.031 11.789 461.639 13.5605 461.436 15.6763C461.233 17.7918 461.132 20.2516 461.132 23.0554H474.444V28.1788H461.132V67.2545H448.239V28.1788H440.252V23.0554H448.239C448.239 19.0026 448.67 15.5233 449.532 12.6174C450.394 9.71155 451.7 7.32824 453.449 5.46747C455.199 3.58138 457.391 2.20479 460.029 1.33822C462.69 0.446073 465.798 0 469.347 0C471.476 0 473.377 0.152953 475.051 0.458862C476.749 0.739191 478.245 1.12158 479.541 1.60576C480.857 2.06462 482.012 2.58717 483.002 3.17341C483.988 3.75965 484.863 4.34588 485.624 4.93212ZM499.089 67.2545H486.195V28.2169H478.209V23.0938H486.195V6.84405H499.089V23.0938H512.4V28.2169H499.089V67.2545ZM555.872 53.1459C555.872 55.0831 555.594 56.8037 555.036 58.3077C554.478 59.8114 553.717 61.1243 552.754 62.2459C551.79 63.3419 550.648 64.2721 549.329 65.0369C548.013 65.7761 546.592 66.3751 545.071 66.834C543.575 67.2926 542.002 67.6241 540.353 67.8279C538.707 68.032 537.071 68.1338 535.449 68.1338C533.268 68.1338 531.341 67.9937 529.666 67.7133C527.994 67.433 526.395 66.9869 524.873 66.3751C523.355 65.7377 521.833 64.9221 520.312 63.9281C518.814 62.9339 517.141 61.7233 515.29 60.2958L522.783 54.1401C523.466 55.4399 524.367 56.6252 525.484 57.6959C526.623 58.741 527.802 59.6459 529.02 60.4104C530.238 61.1752 531.416 61.7614 532.556 62.1694C533.699 62.5771 534.623 62.781 535.334 62.781C535.916 62.781 536.575 62.7682 537.31 62.7428C538.048 62.6919 538.795 62.6155 539.556 62.5134C540.317 62.386 541.065 62.2075 541.799 61.9781C542.534 61.7486 543.181 61.4427 543.739 61.0606C544.323 60.6526 544.777 60.1557 545.107 59.5694C545.463 58.9576 545.639 58.2312 545.639 57.39C545.639 56.5234 545.414 55.7714 544.957 55.134C544.526 54.4713 543.954 53.8979 543.246 53.4137C542.534 52.9292 541.724 52.5215 540.81 52.19C539.899 51.8588 538.972 51.5657 538.035 51.3107C537.121 51.0557 536.233 50.839 535.371 50.6608C534.509 50.4569 533.761 50.2656 533.127 50.0873C531.962 49.7558 530.731 49.4243 529.438 49.0931C528.145 48.7363 526.865 48.3411 525.598 47.9078C524.328 47.449 523.113 46.9136 521.947 46.3021C520.805 45.6903 519.79 44.9639 518.904 44.1226C518.042 43.2561 517.344 42.2491 516.812 41.1022C516.305 39.9294 516.051 38.5659 516.051 37.011C516.051 34.1561 516.609 31.7727 517.726 29.8611C518.866 27.9238 520.361 26.3817 522.212 25.2349C524.063 24.0621 526.167 23.2339 528.527 22.7495C530.884 22.2653 533.281 22.0231 535.713 22.0231C537.388 22.0231 539.148 22.2016 541 22.5584C542.851 22.8896 544.653 23.3994 546.4 24.0877C548.15 24.7504 549.786 25.5661 551.307 26.5347C552.829 27.5033 554.096 28.6121 555.111 29.8611L547.618 36.0552C547.06 34.5256 546.325 33.213 545.414 32.117C544.526 31.021 543.549 30.1289 542.485 29.4406C541.444 28.727 540.366 28.2044 539.252 27.8729C538.162 27.5417 537.147 27.3759 536.209 27.3759C535.295 27.3759 534.27 27.4141 533.127 27.4905C531.988 27.567 530.91 27.7837 529.895 28.1405C528.906 28.4975 528.057 29.0454 527.348 29.7846C526.662 30.4985 526.32 31.4924 526.32 32.7669C526.32 33.6847 526.522 34.4748 526.927 35.1375C527.358 35.7749 527.916 36.3355 528.602 36.8197C529.287 37.2786 530.061 37.6737 530.923 38.005C531.808 38.3109 532.709 38.5915 533.623 38.8462C534.535 39.0756 535.423 39.2795 536.285 39.458C537.147 39.6363 537.92 39.8276 538.606 40.0315C539.772 40.363 541 40.707 542.293 41.0638C543.612 41.3953 544.905 41.7902 546.174 42.2491C547.441 42.6823 548.659 43.2049 549.825 43.8167C551.017 44.4029 552.055 45.1293 552.943 45.9962C553.831 46.8627 554.54 47.8823 555.072 49.0547C555.604 50.2019 555.872 51.5657 555.872 53.1459Z" fill="#0081A8"/>
</svg>
