<svg width="21" height="21" viewBox="0 0 21 21" fill="none" xmlns="http://www.w3.org/2000/svg">
<path d="M7.61199 16.6108V14.7663C7.61199 14.4852 7.8398 14.2575 8.12092 14.2575H8.36668V11.1672H8.07598C7.79485 11.1672 7.56687 10.9392 7.56687 10.6581V8.69617C7.56687 8.41504 7.79485 8.18723 8.07598 8.18723H11.6948C12.0396 8.18723 12.2994 8.33335 12.4749 8.62439C12.6005 8.83306 12.6634 9.11128 12.6634 9.45837V14.2575H12.9242C13.2053 14.2575 13.4333 14.4852 13.4333 14.7663V16.6108C13.4333 16.8919 13.2053 17.1199 12.9242 17.1199H8.12092C7.8398 17.1199 7.61199 16.8919 7.61199 16.6108ZM10.5 1.01787C9.84358 1.01787 9.20715 1.07957 8.59124 1.20295C7.97429 1.32634 7.37957 1.5104 6.80723 1.75478L6.80757 1.75547C6.22446 2.00618 5.6822 2.2991 5.18147 2.63508C4.67937 2.97192 4.21401 3.35457 3.78608 3.7842L3.78403 3.78608C3.35457 4.21401 2.97192 4.67937 2.63491 5.18147C2.29893 5.6822 2.00601 6.22463 1.7553 6.80757C1.75171 6.81577 1.74812 6.8238 1.74419 6.83184C1.50493 7.39648 1.32446 7.98318 1.20278 8.59123C1.07957 9.20715 1.01787 9.84358 1.01787 10.4998C1.01787 11.1564 1.07957 11.7925 1.20278 12.4088C1.32634 13.0255 1.51023 13.6204 1.75461 14.1926H1.7553C2.00601 14.7754 2.2991 15.3178 2.63491 15.8185C2.97175 16.3206 3.35439 16.7862 3.78403 17.2141L3.78591 17.2161V17.2158C4.21384 17.6454 4.6792 18.0282 5.1813 18.3651C5.68203 18.7012 6.22446 18.994 6.8074 19.2445C6.8156 19.2481 6.82363 19.2519 6.83149 19.2558C7.39631 19.4947 7.98284 19.6754 8.59107 19.7972C9.20698 19.9204 9.84341 19.9821 10.4998 19.9821C11.1563 19.9821 11.7925 19.9204 12.4086 19.7972C13.0254 19.6737 13.6203 19.4898 14.1924 19.2454L14.1921 19.2444C14.7752 18.9937 15.3176 18.7009 15.8184 18.3649C16.3205 18.0281 16.7856 17.6453 17.2136 17.2156L17.2158 17.2139C17.6454 16.786 18.0279 16.3203 18.3647 15.8184C18.7007 15.3176 18.9938 14.7752 19.2444 14.1924C19.248 14.1841 19.2517 14.176 19.2555 14.168C19.4946 13.6032 19.6752 13.0168 19.7969 12.4086C19.9203 11.7925 19.982 11.1562 19.982 10.4997C19.982 9.84341 19.9203 9.20698 19.7969 8.59106C19.6733 7.97412 19.4894 7.37939 19.245 6.80723L19.2444 6.8074C18.9937 6.22429 18.7006 5.68203 18.3647 5.1813C18.0279 4.6792 17.6453 4.21384 17.2156 3.78591L17.2137 3.78386C16.7858 3.35422 16.3203 2.97175 15.8184 2.63474C15.3176 2.29875 14.7752 2.00566 14.1921 1.75513C14.1839 1.75154 14.1759 1.74778 14.168 1.74402C13.6032 1.50493 13.0167 1.32429 12.4084 1.20261C11.7928 1.07957 11.1564 1.01787 10.5 1.01787ZM8.39248 0.204907C9.07471 0.0683594 9.77744 0 10.5 0C11.2226 0 11.9253 0.0683594 12.6075 0.204907C13.2786 0.339233 13.9316 0.541064 14.5662 0.810058C14.5756 0.813476 14.5846 0.817236 14.594 0.820996C15.2264 1.09307 15.823 1.41624 16.3832 1.79221C16.9415 2.16682 17.4583 2.59167 17.9325 3.06746C18.4083 3.5417 18.8332 4.05867 19.2078 4.61699C19.5836 5.17686 19.9069 5.77363 20.179 6.40596L20.1782 6.4063L20.179 6.40801C20.4535 7.05059 20.6591 7.71213 20.7951 8.39248C20.9316 9.07471 20.9998 9.77744 20.9998 10.5C20.9998 11.2227 20.9316 11.9256 20.7951 12.6075C20.6608 13.2788 20.4589 13.9316 20.1899 14.5662C20.1865 14.5756 20.1829 14.5848 20.179 14.5942C19.9069 15.2264 19.5838 15.8231 19.2078 16.3833C18.8332 16.9415 18.4083 17.4585 17.9325 17.9327C17.4583 18.4083 16.9413 18.8333 16.3832 19.2078C15.8231 19.5836 15.2264 19.9071 14.594 20.1792L14.5937 20.1785L14.5918 20.1792C13.9492 20.4535 13.2877 20.6592 12.6075 20.7953C11.9253 20.9318 11.2226 21.0002 10.5 21.0002C9.77744 21.0002 9.07471 20.9318 8.39248 20.7953C7.72136 20.6608 7.06819 20.4591 6.43381 20.1901C6.42441 20.1867 6.41519 20.1831 6.40596 20.1792C5.77346 19.9071 5.17686 19.5838 4.61682 19.2078C4.0585 18.8333 3.5417 18.4083 3.06746 17.9327C2.59168 17.4585 2.16682 16.9413 1.79221 16.3833C1.41641 15.8233 1.09307 15.2264 0.820996 14.5942L0.82168 14.5939L0.820996 14.5922C0.546362 13.9496 0.340942 13.2877 0.204907 12.6075C0.0683594 11.9255 0 11.2226 0 10.4998C0 9.77727 0.0683594 9.07454 0.204907 8.39231C0.339233 7.72119 0.540894 7.06819 0.810059 6.43381C0.813477 6.42441 0.817065 6.41519 0.820996 6.40579C1.09307 5.77346 1.41624 5.17668 1.79221 4.61682C2.16682 4.0585 2.59168 3.54153 3.06746 3.06728C3.5417 2.5915 4.0585 2.16665 4.61682 1.79204C5.17686 1.41624 5.77346 1.0929 6.40596 0.820825L6.4063 0.821509L6.40801 0.820825C7.05059 0.546362 7.71231 0.340942 8.39248 0.204907ZM8.62986 15.266V16.1019H12.4151V15.266C12.3312 15.2523 12.2488 15.2229 12.1683 15.1782C12.0832 15.1315 12.0031 15.0697 11.927 14.9939C11.852 14.9189 11.7901 14.8374 11.7423 14.7496C11.6782 14.6323 11.6455 14.5129 11.6455 14.3917V9.45854C11.6455 9.34592 11.6387 9.2615 11.625 9.20527H8.58491V10.1526C8.68728 10.1626 8.78674 10.1955 8.88279 10.2507L8.88193 10.2522L8.88279 10.2527C8.95508 10.2944 9.02498 10.3491 9.09197 10.4168C9.10308 10.427 9.11419 10.4378 9.12461 10.4492C9.19741 10.5287 9.25484 10.6078 9.29568 10.6866C9.35464 10.7998 9.38472 10.9153 9.38472 11.033V14.3919C9.38472 14.4977 9.36079 14.6016 9.31397 14.7032C9.3085 14.7166 9.30234 14.7299 9.29551 14.7429C9.25347 14.8237 9.19502 14.9032 9.12085 14.9818C9.04548 15.062 8.96585 15.126 8.88142 15.1741C8.79922 15.2209 8.71565 15.2517 8.62986 15.266ZM10.5075 7.61335C10.2288 7.61335 9.97073 7.57148 9.73284 7.48774C9.48657 7.40076 9.26765 7.27019 9.0759 7.09536C9.06685 7.08733 9.0583 7.07878 9.0501 7.07024C8.86467 6.89695 8.72488 6.697 8.6302 6.47073C8.53262 6.23745 8.48425 5.98196 8.48425 5.7051C8.48425 5.42893 8.53262 5.17207 8.63037 4.93589C8.73035 4.6939 8.87869 4.48232 9.0759 4.3022L9.08616 4.29314C9.2738 4.12224 9.48862 3.99338 9.73079 3.90623C9.97124 3.81958 10.2302 3.77651 10.5075 3.77651C10.7916 3.77651 11.0534 3.81907 11.2935 3.90417C11.5418 3.99236 11.7619 4.12498 11.9538 4.3022L11.954 4.30203C12.1512 4.48215 12.2996 4.69373 12.3997 4.93572C12.4973 5.1719 12.5457 5.42876 12.5457 5.70493C12.5457 5.98196 12.4975 6.23745 12.3997 6.47073C12.3006 6.70759 12.1521 6.91575 11.9532 7.09451L11.954 7.09536C11.7626 7.26985 11.5418 7.40059 11.2914 7.48774C11.0503 7.57165 10.7892 7.61335 10.5075 7.61335ZM10.0709 6.52952C10.1958 6.57361 10.3414 6.59565 10.5077 6.59565C10.681 6.59565 10.831 6.57378 10.9577 6.52952C11.0752 6.48867 11.1795 6.42681 11.2702 6.34409L11.2711 6.34495L11.2743 6.34204C11.3579 6.26719 11.4203 6.1802 11.4618 6.08125C11.5063 5.97495 11.5283 5.84951 11.5283 5.7051C11.5283 5.55727 11.5063 5.42927 11.4616 5.32143C11.4206 5.22197 11.3569 5.13259 11.2704 5.05364L11.2708 5.05347L11.2665 5.04971C11.1773 4.96682 11.0737 4.90427 10.956 4.86257C10.8281 4.81711 10.6788 4.79456 10.508 4.79456C10.3407 4.79456 10.1956 4.8166 10.0733 4.86069C9.96235 4.90051 9.86221 4.96101 9.773 5.04185C9.7689 5.04595 9.7648 5.04988 9.76035 5.05381C9.67388 5.13276 9.6103 5.22214 9.56912 5.32161C9.52468 5.42927 9.50247 5.55745 9.50247 5.7051C9.50247 5.84934 9.52451 5.97495 9.56895 6.08108C9.60706 6.17217 9.66277 6.253 9.73643 6.32358C9.74446 6.33008 9.75249 6.33691 9.76018 6.34392C9.85059 6.42646 9.95415 6.48833 10.0709 6.52952Z" fill="white"/>
</svg>
