<svg width="19" height="18" viewBox="0 0 19 18" fill="none" xmlns="http://www.w3.org/2000/svg">
<path d="M5.948 0C4.50359 0.00158814 3.11879 0.576082 2.09744 1.59744C1.07608 2.61879 0.501588 4.00359 0.5 5.448V12.5535C0.501985 13.9977 1.07665 15.3821 2.09797 16.4031C3.11928 17.4241 4.50385 17.9984 5.948 18H13.0535C14.4977 17.998 15.8821 17.4233 16.9031 16.402C17.9241 15.3807 18.4984 13.9962 18.5 12.552V5.448C18.4984 4.00359 17.9239 2.61879 16.9026 1.59744C15.8812 0.576082 14.4964 0.00158814 13.052 0H5.948ZM14.237 3.3165C14.4245 3.3165 14.6078 3.3721 14.7637 3.47627C14.9196 3.58043 15.0411 3.72849 15.1128 3.90172C15.1846 4.07494 15.2034 4.26555 15.1668 4.44945C15.1302 4.63334 15.0399 4.80226 14.9073 4.93484C14.7748 5.06742 14.6058 5.15771 14.4219 5.19428C14.2381 5.23086 14.0474 5.21209 13.8742 5.14034C13.701 5.06859 13.5529 4.94708 13.4488 4.79118C13.3446 4.63528 13.289 4.452 13.289 4.2645C13.2888 4.13995 13.3132 4.01659 13.3608 3.90148C13.4083 3.78638 13.4782 3.68179 13.5662 3.59372C13.6543 3.50565 13.7589 3.43583 13.874 3.38826C13.9891 3.34069 14.1125 3.3163 14.237 3.3165ZM9.5 4.263C10.4369 4.263 11.3527 4.54082 12.1317 5.06133C12.9107 5.58184 13.5179 6.32166 13.8764 7.18723C14.2349 8.0528 14.3288 9.00526 14.146 9.92414C13.9632 10.843 13.512 11.6871 12.8496 12.3496C12.1871 13.012 11.343 13.4632 10.4241 13.646C9.50526 13.8288 8.5528 13.7349 7.68723 13.3764C6.82166 13.0179 6.08184 12.4107 5.56133 11.6317C5.04082 10.8527 4.763 9.93689 4.763 9C4.76419 7.74404 5.26365 6.53985 6.15175 5.65175C7.03985 4.76365 8.24404 4.26419 9.5 4.263ZM9.5 5.6835C8.84406 5.6835 8.20285 5.87801 7.65745 6.24243C7.11206 6.60685 6.68697 7.12482 6.43595 7.73083C6.18494 8.33684 6.11926 9.00368 6.24723 9.64702C6.37519 10.2904 6.69106 10.8813 7.15488 11.3451C7.6187 11.8089 8.20964 12.1248 8.85298 12.2528C9.49632 12.3807 10.1632 12.3151 10.7692 12.064C11.3752 11.813 11.8931 11.3879 12.2576 10.8425C12.622 10.2972 12.8165 9.65594 12.8165 9C12.8165 8.12041 12.4671 7.27685 11.8451 6.65488C11.2232 6.03292 10.3796 5.6835 9.5 5.6835Z" fill="white"/>
</svg>
