<svg width="26" height="35" viewBox="0 0 26 35" fill="none" xmlns="http://www.w3.org/2000/svg">
<path fill-rule="evenodd" clip-rule="evenodd" d="M19.3089 29.9833C17.7334 31.7126 15.8986 33.2615 13.8383 34.5141C13.5847 34.7003 13.2408 34.7229 12.959 34.5423C9.9151 32.6041 7.35878 30.2767 5.34924 27.7461C2.57591 24.2647 0.831302 20.4054 0.233796 16.687C-0.374985 12.9179 0.194338 9.28989 2.06859 6.34176C2.80702 5.17661 3.75119 4.11585 4.90111 3.19896C7.5448 1.09154 10.5633 -0.0228284 13.5734 -0.00025893C16.4708 0.0223105 19.3315 1.10282 21.8032 3.36259C22.6713 4.15252 23.4013 5.05812 23.9988 6.03989C26.014 9.36324 26.448 13.6007 25.563 17.8945C24.6893 22.1376 22.5191 26.4483 19.3089 29.9748V29.9833ZM12.9985 6.70287C16.5722 6.70287 19.4668 9.60304 19.4668 13.1775C19.4668 16.7547 16.5694 19.6521 12.9985 19.6521C9.42469 19.6521 6.53016 16.7547 6.53016 13.1775C6.52735 9.60022 9.42469 6.70287 12.9985 6.70287Z" fill="white"/>
</svg>
