<svg width="30" height="30" viewBox="0 0 30 30" fill="none" xmlns="http://www.w3.org/2000/svg">
<path d="M8.26187 12.3296C9.27017 14.1575 10.4323 15.9118 11.9411 17.5116C13.4547 19.1211 15.3371 20.5859 17.7736 21.8372C17.9543 21.9256 18.1252 21.9256 18.279 21.8642C18.5109 21.7759 18.7477 21.5821 18.9796 21.349C19.1603 21.1674 19.3849 20.8779 19.6193 20.5614C20.5568 19.3223 21.7165 17.7839 23.3546 18.5543C23.3913 18.5715 23.4181 18.5911 23.4547 18.6059L28.9186 21.7636C28.9357 21.7734 28.9552 21.7906 28.9699 21.8004C29.6901 22.2985 29.9879 23.0665 29.9953 23.9375C29.9953 24.8232 29.6706 25.8194 29.1945 26.661C28.5646 27.7725 27.6369 28.5085 26.5675 28.9943C25.5495 29.4654 24.4167 29.7181 23.3278 29.8801C21.6188 30.1328 20.0172 29.9709 18.3791 29.4654C16.7775 28.9673 15.1637 28.1454 13.401 27.0511L13.2716 26.9677C12.4635 26.4598 11.5895 25.9175 10.7326 25.2772C7.59781 22.8972 4.40201 19.4597 2.31949 15.6763C0.573883 12.5013 -0.378265 9.07367 0.141755 5.80795C0.42984 4.01683 1.194 2.38765 2.52701 1.31297C3.68912 0.370797 5.25406 -0.144456 7.28043 0.0371097C7.51236 0.0542848 7.71988 0.189232 7.82974 0.390426L11.3332 6.34283C11.8459 7.0102 11.9093 7.67267 11.6286 8.33514C11.3966 8.87738 10.9279 9.37791 10.2882 9.84409C10.1003 10.006 9.87564 10.1704 9.63883 10.3422C8.85513 10.9139 7.96402 11.5739 8.2692 12.3492L8.26187 12.3296Z" fill="white"/>
</svg>
