<svg width="160" height="160" viewBox="0 0 160 160" fill="none" xmlns="http://www.w3.org/2000/svg">
<path d="M160 80C160 124.183 124.183 160 80 160C35.8172 160 0 124.183 0 80C0 35.8172 35.8172 0 80 0C124.183 0 160 35.8172 160 80Z" fill="#00AEB8"/>
<path d="M138.919 80.4212L149.999 81.8809L149.783 83.5168L143.464 86.9206L143.572 86.1026L148.803 90.9525L148.588 92.5884L137.509 91.1287L137.738 89.3887L146.75 90.5761L146.485 91.2069L141.325 86.2756L141.349 86.0972L147.598 82.7599L147.7 83.3634L138.688 82.176L138.919 80.4212Z" fill="white"/>
<path d="M136.538 95.8465L146.971 99.8507L144.332 106.727L142.862 106.162L144.867 100.939L141.87 99.7886L139.973 104.732L138.502 104.168L140.4 99.2243L137.375 98.0633L135.37 103.287L133.899 102.722L136.538 95.8465Z" fill="white"/>
<path d="M132.19 106.835L141.597 112.868L137.62 119.068L136.294 118.217L139.315 113.508L136.613 111.775L133.754 116.232L132.429 115.381L135.288 110.924L132.56 109.175L129.54 113.884L128.214 113.034L132.19 106.835Z" fill="white"/>
<path d="M125.713 116.697L133.729 124.483L130.897 127.399C130.374 127.937 129.814 128.313 129.216 128.527C128.625 128.747 128.028 128.788 127.425 128.648C126.822 128.522 126.259 128.205 125.735 127.697C125.183 127.16 124.846 126.561 124.723 125.898C124.593 125.242 124.665 124.594 124.938 123.953L119.913 122.668L121.313 121.227L126.723 122.654L125.434 123.013L127.493 120.893L124.48 117.966L125.713 116.697ZM128.623 121.99L127.003 123.658C126.717 123.952 126.527 124.262 126.433 124.589C126.339 124.916 126.336 125.234 126.425 125.544C126.515 125.868 126.7 126.166 126.979 126.438C127.259 126.709 127.559 126.882 127.878 126.955C128.197 127.042 128.516 127.03 128.832 126.92C129.156 126.816 129.461 126.617 129.746 126.323L131.366 124.655L128.623 121.99Z" fill="white"/>
<path d="M111.947 128.839L117.56 138.503L116.029 139.392L110.416 129.728L111.947 128.839Z" fill="white"/>
<path d="M106.008 132.493L109.815 142.999L108.476 143.485L99.6319 137.484L100.231 137.155L103.216 145.391L101.566 145.989L97.7578 135.483L99.0976 134.997L107.92 141.069L107.354 141.402L104.344 133.096L106.008 132.493Z" fill="white"/>
<path d="M92.9769 136.883L94.4792 147.956L87.2702 148.934L87.0585 147.373L92.5135 146.633L92.0618 143.304L87.2014 143.963L86.9896 142.403L91.8501 141.743L91.223 137.12L92.9769 136.883Z" fill="white"/>
<path d="M76.7417 137.769C77.5483 137.844 78.2866 138.058 78.9568 138.411C79.6171 138.764 80.187 139.223 80.6667 139.79C81.1364 140.356 81.4883 141.001 81.7223 141.726C81.9464 142.45 82.0201 143.225 81.9434 144.051C81.8667 144.878 81.6516 145.626 81.2981 146.296C80.9338 146.976 80.4692 147.545 79.9043 148.005C79.3384 148.475 78.6941 148.817 77.9712 149.031C77.2474 149.255 76.4822 149.329 75.6757 149.254C74.8592 149.179 74.1208 148.965 73.4606 148.612C72.7895 148.269 72.219 147.814 71.7493 147.248C71.2696 146.681 70.9178 146.036 70.6937 145.312C70.4696 144.588 70.396 143.813 70.4727 142.987C70.5494 142.16 70.7694 141.412 71.1328 140.743C71.4863 140.073 71.9459 139.503 72.5118 139.033C73.0776 138.564 73.7224 138.217 74.4462 137.993C75.17 137.769 75.9352 137.694 76.7417 137.769ZM76.592 139.382C76.0145 139.328 75.4771 139.384 74.9797 139.549C74.4724 139.712 74.0224 139.962 73.6297 140.297C73.2362 140.642 72.9167 141.054 72.6714 141.534C72.4251 142.023 72.2747 142.562 72.2201 143.149C72.1656 143.736 72.2148 144.288 72.3678 144.805C72.5207 145.321 72.7588 145.785 73.0822 146.197C73.4055 146.608 73.8014 146.941 74.2699 147.196C74.7285 147.449 75.2465 147.603 75.824 147.656C76.4015 147.71 76.9439 147.655 77.4513 147.491C77.9486 147.326 78.3941 147.071 78.7877 146.726C79.1812 146.381 79.5007 145.969 79.746 145.49C79.9814 145.009 80.1264 144.475 80.1809 143.888C80.2355 143.3 80.1917 142.744 80.0496 142.219C79.8967 141.702 79.6586 141.238 79.3352 140.827C79.011 140.425 78.6146 140.097 78.1461 139.842C77.6776 139.588 77.1596 139.435 76.592 139.382Z" fill="white"/>
<path d="M66.6409 136.628L63.0314 147.204L59.1843 145.891C58.4745 145.649 57.8951 145.303 57.4461 144.854C56.9938 144.414 56.7019 143.892 56.5702 143.287C56.4259 142.688 56.4716 142.044 56.7074 141.353C56.9561 140.624 57.3538 140.062 57.9005 139.668C58.4378 139.27 59.0544 139.058 59.7503 139.031L58.7621 133.939L60.6644 134.588L61.6876 140.089L60.8125 139.077L63.6092 140.031L64.9657 136.056L66.6409 136.628ZM63.1004 141.522L60.9001 140.771C60.512 140.638 60.1502 140.599 59.8146 140.654C59.479 140.708 59.1903 140.842 58.9484 141.056C58.6939 141.275 58.5036 141.57 58.3776 141.939C58.2517 142.308 58.2239 142.652 58.2944 142.972C58.3521 143.298 58.4987 143.581 58.7342 143.82C58.9664 144.068 59.2766 144.258 59.6646 144.391L61.865 145.142L63.1004 141.522Z" fill="white"/>
<path d="M55.599 132.945L49.6347 142.396L48.2394 141.515L47.7938 134.352L48.4915 134.792L41.8969 137.512L40.5015 136.632L46.4658 127.181L47.95 128.118L43.0985 135.805L42.6364 135.301L49.2751 132.679L49.4273 132.775L49.8415 139.848L49.2507 139.688L54.1022 132.001L55.599 132.945Z" fill="white"/>
<path d="M43.2701 125.065L32.4801 129.954L30.9657 128.372L36.3202 117.806L37.6272 119.171L36.409 121.521L39.552 124.804L41.9631 123.7L43.2701 125.065ZM38.0616 125.525L35.6447 123L32.7882 128.476L32.4459 128.118L38.0616 125.525Z" fill="white"/>
<path d="M32.8467 113.251L24.7662 118.434L26.3697 120.934L25.044 121.784L20.9137 115.345L22.2394 114.495L23.8186 116.957L31.8992 111.773L32.8467 113.251Z" fill="white"/>
<path d="M28.6698 106.329L18.4776 110.911L17.7518 109.297L27.944 104.714L28.6698 106.329Z" fill="white"/>
<path d="M25.7108 99.9625L14.9029 102.803L13.0305 95.6804L14.5538 95.28L15.9762 100.691L19.0807 99.8751L17.7346 94.7541L19.2579 94.3537L20.604 99.4747L23.7375 98.651L22.3151 93.2398L23.8384 92.8394L25.7108 99.9625Z" fill="white"/>
<path d="M22.6997 76.768C22.628 77.5748 22.4167 78.314 22.0658 78.9855C21.7158 79.6471 21.2584 80.2189 20.6935 80.7007C20.1294 81.1726 19.4855 81.527 18.7617 81.7638C18.0388 81.9906 17.2639 82.0673 16.4372 81.9938C15.6104 81.9202 14.8613 81.708 14.1897 81.3572C13.5091 80.9955 12.9378 80.533 12.4759 79.9699C12.004 79.4059 11.6596 78.7628 11.4427 78.0408C11.2159 77.3178 11.1383 76.553 11.2101 75.7462C11.2827 74.9294 11.494 74.1902 11.844 73.5286C12.1849 72.8561 12.6374 72.284 13.2014 71.8121C13.7663 71.3302 14.4102 70.9759 15.1331 70.749C15.8561 70.5222 16.6309 70.4455 17.4577 70.519C18.2844 70.5926 19.0331 70.8097 19.7038 71.1706C20.3753 71.5214 20.9471 71.9789 21.419 72.5429C21.8908 73.1069 22.2402 73.7504 22.4671 74.4733C22.6939 75.1963 22.7715 75.9612 22.6997 76.768ZM21.0861 76.6245C21.1375 76.0467 21.0798 75.5095 20.9132 75.0128C20.7474 74.5061 20.4962 74.0571 20.1595 73.6658C19.8129 73.2735 19.3995 72.9556 18.9191 72.7121C18.4289 72.4677 17.8899 72.3194 17.3022 72.2671C16.7145 72.2149 16.1628 72.2662 15.647 72.4211C15.1313 72.5761 14.6682 72.816 14.2578 73.1409C13.8474 73.4658 13.5159 73.863 13.2634 74.3325C13.0117 74.792 12.8601 75.3106 12.8088 75.8883C12.7574 76.4661 12.8146 77.0083 12.9803 77.5149C13.147 78.0116 13.4036 78.4561 13.7502 78.8484C14.0969 79.2406 14.5103 79.5585 14.9906 79.802C15.4718 80.0355 16.0063 80.1784 16.594 80.2307C17.1817 80.283 17.7379 80.2371 18.2627 80.093C18.7785 79.9381 19.2416 79.6982 19.652 79.3732C20.0524 79.0474 20.3789 78.6498 20.6315 78.1803C20.8841 77.7108 21.0356 77.1922 21.0861 76.6245Z" fill="white"/>
<path d="M24.6736 63.8463L12.8181 63.94L13.4402 62.1394L23.5152 62.1924L23.3928 62.5468L15.4289 56.3833L16.051 54.5827L25.3202 61.9749L24.6736 63.8463Z" fill="white"/>
<path d="M28.0127 54.6613L18.4545 48.8716L22.2702 42.5721L23.6174 43.3881L20.7186 48.1737L23.4642 49.8367L26.2075 45.3078L27.5547 46.1238L24.8113 50.6527L27.5826 52.3314L30.4813 47.5458L31.8285 48.3618L28.0127 54.6613Z" fill="white"/>
<path d="M34.1065 44.7475L25.8951 37.1677L28.6523 34.1807C29.1611 33.6296 29.7116 33.2396 30.304 33.0107C30.889 32.775 31.4847 32.7194 32.0912 32.8437C32.6972 32.9539 33.2683 33.2566 33.8047 33.7518C34.3705 34.2741 34.7232 34.865 34.8628 35.5246C35.0092 36.1769 34.9538 36.8267 34.6966 37.4738L39.7532 38.6304L38.3898 40.1073L32.9458 38.8177L34.2252 38.4268L32.2209 40.5981L35.307 43.447L34.1065 44.7475ZM31.0636 39.5298L32.6406 37.8214C32.9187 37.5202 33.1007 37.2051 33.1866 36.8761C33.2725 36.5471 33.2669 36.2289 33.1697 35.9214C33.0719 35.5998 32.8797 35.3067 32.5931 35.0422C32.3066 34.7777 32.0028 34.6129 31.6817 34.5479C31.3601 34.4688 31.0424 34.4885 30.7287 34.6072C30.4077 34.7191 30.1081 34.9257 29.83 35.227L28.253 36.9354L31.0636 39.5298Z" fill="white"/>
<path d="M51.8781 29.7252C51.1603 30.1006 50.4241 30.322 49.6694 30.3895C48.9236 30.4523 48.1954 30.3762 47.4847 30.1611C46.7829 29.9413 46.1369 29.5908 45.5467 29.1096C44.9652 28.6237 44.4822 28.013 44.0975 27.2776C43.7128 26.5421 43.4867 25.797 43.4193 25.0423C43.356 24.2742 43.4366 23.5436 43.661 22.8507C43.8808 22.1489 44.2359 21.5117 44.7264 20.9392C45.2123 20.3578 45.8141 19.8794 46.5318 19.5039C47.2584 19.1239 47.9947 18.9024 48.7405 18.8396C49.4905 18.7633 50.2164 18.835 50.9182 19.0548C51.6289 19.2699 52.2749 19.6204 52.8563 20.1063C53.4377 20.5921 53.9208 21.2028 54.3055 21.9383C54.6901 22.6737 54.9118 23.4211 54.9704 24.1804C55.0379 24.9351 54.9617 25.6634 54.7419 26.3652C54.5222 27.0669 54.1694 27.7085 53.6835 28.2899C53.1976 28.8714 52.5958 29.3498 51.8781 29.7252ZM51.1272 28.2897C51.6412 28.0209 52.0622 27.6822 52.3902 27.2736C52.727 26.8604 52.9692 26.4065 53.1167 25.9118C53.2596 25.4082 53.3038 24.8885 53.2493 24.3528C53.1901 23.8082 53.0238 23.2745 52.7503 22.7517C52.4769 22.2289 52.1357 21.7923 51.7267 21.4419C51.3178 21.0916 50.8657 20.8315 50.3706 20.6616C49.8755 20.4917 49.3621 20.4273 48.8306 20.4683C48.308 20.5047 47.7897 20.6573 47.2757 20.9261C46.7618 21.195 46.3364 21.536 45.9995 21.9492C45.6715 22.3577 45.4361 22.8138 45.2932 23.3173C45.1503 23.8209 45.1061 24.3406 45.1607 24.8763C45.224 25.4074 45.3925 25.9344 45.6659 26.4572C45.9394 26.98 46.2785 27.4233 46.6832 27.7872C47.0922 28.1375 47.5442 28.3977 48.0393 28.5675C48.5298 28.7285 49.0408 28.7885 49.5723 28.7475C50.1039 28.7065 50.6222 28.5539 51.1272 28.2897Z" fill="white"/>
<path d="M60.8142 25.0609L58.2618 14.1813L59.6491 13.8559L67.7302 20.85L67.097 21.1064L65.0962 12.578L66.8048 12.1771L69.3572 23.0567L67.9699 23.3822L59.9189 16.3194L60.5195 16.0552L62.5374 24.6567L60.8142 25.0609Z" fill="white"/>
<path d="M73.444 22.1658L73.4179 20.816L78.9876 12.457L73.5887 12.5612L73.5583 10.9865L81.2218 10.8386L81.2476 12.1733L75.6782 20.5474L81.5421 20.4342L81.5725 22.0089L73.444 22.1658Z" fill="white"/>
<path d="M85.2749 21.971L87.2426 10.9706L94.4925 12.2674L94.2152 13.8178L88.7076 12.8326L88.1424 15.9925L93.3547 16.9248L93.0774 18.4752L87.8651 17.5429L87.2946 20.7322L92.8022 21.7174L92.5249 23.2678L85.2749 21.971Z" fill="white"/>
<path d="M102.939 26.1612L108.373 16.3962L111.571 18.1759C112.585 18.7399 113.349 19.434 113.863 20.258C114.391 21.0781 114.656 21.9694 114.658 22.932C114.66 23.8945 114.391 24.8608 113.852 25.8307C113.317 26.7919 112.637 27.5296 111.813 28.0438C110.994 28.5493 110.095 28.7983 109.115 28.7909C108.143 28.7882 107.151 28.5049 106.137 27.9409L102.939 26.1612ZM105.252 25.6456L106.929 26.5792C107.62 26.9633 108.298 27.1522 108.966 27.1459C109.642 27.1444 110.265 26.9593 110.837 26.5906C111.408 26.2219 111.893 25.6793 112.292 24.9628C112.691 24.2462 112.889 23.55 112.888 22.8739C112.9 22.1941 112.733 21.5689 112.386 20.9985C112.04 20.4281 111.522 19.9509 110.831 19.5668L109.154 18.6332L105.252 25.6456Z" fill="white"/>
<path d="M114.929 33.2946L122.018 24.6563L123.386 25.7792L116.297 34.4175L114.929 33.2946Z" fill="white"/>
<path d="M120.5 37.7302L128.902 30.3618L133.758 35.8989L132.574 36.9374L128.884 32.731L126.471 34.8476L129.962 38.8284L128.778 39.867L125.287 35.8861L122.851 38.0224L126.54 42.2289L125.356 43.2674L120.5 37.7302Z" fill="white"/>
<path d="M128.331 46.6703L138.136 41.3088L138.82 42.5591L134.234 52.2128L133.818 51.6709L141.504 47.4681L142.346 49.0079L132.541 54.3694L131.858 53.1191L136.518 43.4761L136.932 43.9844L129.181 48.2233L128.331 46.6703Z" fill="white"/>
<path d="M135.643 62.6607C135.45 61.9879 135.395 61.3273 135.48 60.6788C135.573 60.0276 135.783 59.4366 136.11 58.9059C136.436 58.3752 136.859 57.9309 137.381 57.573L138.401 58.8406C137.812 59.2907 137.412 59.8167 137.2 60.4187C136.988 61.0206 136.976 61.6484 137.163 62.3019C137.274 62.6864 137.428 63.0062 137.626 63.2614C137.834 63.5138 138.071 63.6852 138.336 63.7754C138.604 63.8753 138.882 63.8838 139.17 63.801C139.564 63.6877 139.845 63.4874 140.012 63.2001C140.179 62.9128 140.268 62.5335 140.278 62.0624L140.333 59.8618C140.351 58.9826 140.554 58.2584 140.941 57.6892C141.339 57.1172 141.884 56.7317 142.576 56.5329C143.181 56.3589 143.753 56.356 144.29 56.5242C144.837 56.6895 145.315 56.9945 145.723 57.4389C146.135 57.8929 146.437 58.4563 146.63 59.1291C146.815 59.7731 146.868 60.3925 146.79 60.9874C146.721 61.5795 146.543 62.1196 146.256 62.6077C145.973 63.1053 145.596 63.5152 145.127 63.8374L144.101 62.6026C144.608 62.2283 144.95 61.771 145.127 61.2309C145.308 60.7005 145.314 60.1421 145.145 59.5558C145.043 59.2002 144.891 58.9058 144.689 58.6726C144.496 58.4366 144.262 58.2749 143.987 58.1874C143.725 58.1067 143.445 58.1092 143.147 58.1948C142.801 58.2942 142.525 58.4931 142.319 58.7915C142.114 59.0899 142.009 59.4843 142.004 59.9746L141.951 62.0187C141.938 62.9486 141.748 63.7003 141.382 64.2736C141.026 64.8442 140.487 65.233 139.766 65.4401C139.17 65.6114 138.596 65.6047 138.044 65.4201C137.494 65.2451 137.006 64.9223 136.579 64.4518C136.162 63.9785 135.85 63.3815 135.643 62.6607Z" fill="white"/>
<path d="M137.716 69.2874L149.207 72.1678L149.409 74.3484L138.645 79.2943L138.47 77.4124L140.886 76.3296L140.466 71.804L137.891 71.1693L137.716 69.2874ZM142.081 72.1663L142.404 75.6463L148.046 73.1342L148.092 73.6271L142.081 72.1663Z" fill="white"/>
<path d="M89 72V85C89 85.2652 88.8947 85.5196 88.7071 85.7071C88.5196 85.8946 88.2652 86 88 86C87.7348 86 87.4804 85.8946 87.2929 85.7071C87.1054 85.5196 87 85.2652 87 85V74.4137L72.7075 88.7075C72.5199 88.8951 72.2654 89.0006 72 89.0006C71.7346 89.0006 71.4801 88.8951 71.2925 88.7075C71.1049 88.5199 70.9995 88.2654 70.9995 88C70.9995 87.7346 71.1049 87.4801 71.2925 87.2925L85.5863 73H75C74.7348 73 74.4804 72.8946 74.2929 72.7071C74.1054 72.5196 74 72.2652 74 72C74 71.7348 74.1054 71.4804 74.2929 71.2929C74.4804 71.1054 74.7348 71 75 71H88C88.2652 71 88.5196 71.1054 88.7071 71.2929C88.8947 71.4804 89 71.7348 89 72Z" fill="white"/>
</svg>
