<svg width="64" height="64" viewBox="0 0 64 64" fill="none" xmlns="http://www.w3.org/2000/svg">
<mask id="mask0_340_592" style="mask-type:luminance" maskUnits="userSpaceOnUse" x="0" y="0" width="64" height="64">
<path d="M64 0H0V64H64V0Z" fill="white"/>
</mask>
<g mask="url(#mask0_340_592)">
<path d="M44.5 14L31.5 22L32.5 35L45 27.5L44.5 14Z" fill="#00AEB8"/>
<path d="M59 37L46 45L47 58L59.5 50.5L59 37Z" fill="#00AEB8"/>
<path d="M32 37L19 45L20 58L32.5 50.5L32 37Z" fill="#00AEB8"/>
<path d="M18.6663 44L5.33301 36L18.6663 28L31.9997 36V50.6667L18.6663 58.6667V44Z" stroke="black" stroke-width="2.5" stroke-linecap="round" stroke-linejoin="round"/>
<path d="M5.33301 36V50.6667L18.6663 58.6667" stroke="black" stroke-width="2.5" stroke-linecap="round" stroke-linejoin="round"/>
<path d="M18.667 44.1199L32.0003 36.0399" stroke="black" stroke-width="2.5" stroke-linecap="round" stroke-linejoin="round"/>
<path d="M45.3333 44L32 36L45.3333 28L58.6667 36V50.6667L45.3333 58.6667V44Z" stroke="black" stroke-width="2.5" stroke-linecap="round" stroke-linejoin="round"/>
<path d="M32 50.6666L45.3333 58.6666" stroke="black" stroke-width="2.5" stroke-linecap="round" stroke-linejoin="round"/>
<path d="M45.333 44L58.6663 36" stroke="black" stroke-width="2.5" stroke-linecap="round" stroke-linejoin="round"/>
<path d="M32.0003 35.9999V21.3332L18.667 13.3332L32.0003 5.33325L45.3337 13.3332V27.9999" stroke="black" stroke-width="2.5" stroke-linecap="round" stroke-linejoin="round"/>
<path d="M18.667 13.4132V27.9599" stroke="black" stroke-width="2.5" stroke-linecap="round" stroke-linejoin="round"/>
<path d="M32 21.3333L45.3333 13.3333" stroke="black" stroke-width="2.5" stroke-linecap="round" stroke-linejoin="round"/>
</g>
</svg>
