<svg width="40" height="40" viewBox="0 0 40 40" fill="none" xmlns="http://www.w3.org/2000/svg">
<path d="M26.5072 29.8895V36.0613L29.4641 37.292V28.2722C28.5353 28.9092 27.5446 29.4511 26.5072 29.8895ZM10.5358 28.2722V37.2304L13.4928 35.9997V29.8895C12.4553 29.4511 11.4647 28.9093 10.5358 28.2722ZM19.9999 31.2025C18.6036 31.2033 17.2127 31.0295 15.8596 30.6853V40L19.9999 38.2768L24.1403 39.9999V30.6853C22.7871 31.0295 21.3962 31.2032 19.9999 31.2025ZM19.9999 0C12.05 0 5.58215 6.4678 5.58215 14.4179C5.58215 22.3679 12.05 28.8356 19.9999 28.8356C27.9499 28.8356 34.4178 22.3678 34.4178 14.4178C34.4178 6.46772 27.95 0 19.9999 0ZM19.9999 25.789C13.6974 25.789 8.5698 20.6614 8.5698 14.3589C8.5698 8.05623 13.6974 2.92867 19.9999 2.92867C26.3025 2.92867 31.4301 8.05623 31.4301 14.3589C31.4301 20.6615 26.3026 25.789 19.9999 25.789ZM19.9999 5.29546C15.0024 5.29546 10.9366 9.36123 10.9366 14.3589C10.9366 19.3565 15.0024 23.4221 19.9999 23.4221C24.9974 23.4221 29.0633 19.3564 29.0633 14.3588C29.0633 9.36123 24.9975 5.29546 19.9999 5.29546ZM23.725 19.6484L19.9999 17.69L16.2749 19.6484L16.9864 15.5006L13.9728 12.5631L18.1375 11.9579L19.9999 8.18397L21.8624 11.9579L26.0272 12.5631L23.0136 15.5006L23.725 19.6484Z" fill="#00AEB8"/>
</svg>
