<svg width="64" height="64" viewBox="0 0 64 64" fill="none" xmlns="http://www.w3.org/2000/svg">
<mask id="mask0_340_575" style="mask-type:luminance" maskUnits="userSpaceOnUse" x="0" y="0" width="64" height="64">
<path d="M64 0H0V64H64V0Z" fill="white"/>
</mask>
<g mask="url(#mask0_340_575)">
<mask id="mask1_340_575" style="mask-type:luminance" maskUnits="userSpaceOnUse" x="0" y="0" width="64" height="64">
<path d="M64 0H0V64H64V0Z" fill="white"/>
</mask>
<g mask="url(#mask1_340_575)">
<path d="M18.5 10V4.5H45V10H18.5Z" fill="#00AEB8"/>
<path d="M18.5 59.5V54H45V59.5H18.5Z" fill="#00AEB8"/>
<path d="M50.6663 21.3334V42.6667C50.6663 43.3739 50.3854 44.0522 49.8853 44.5523C49.3852 45.0524 48.7069 45.3334 47.9997 45.3334H15.9997C15.2924 45.3334 14.6142 45.0524 14.1141 44.5523C13.614 44.0522 13.333 43.3739 13.333 42.6667V21.3334C13.333 20.6261 13.614 19.9478 14.1141 19.4477C14.6142 18.9476 15.2924 18.6667 15.9997 18.6667H47.9997C48.7069 18.6667 49.3852 18.9476 49.8853 19.4477C50.3854 19.9478 50.6663 20.6261 50.6663 21.3334Z" stroke="#00477A" stroke-width="2.5" stroke-linecap="round" stroke-linejoin="round"/>
<path d="M18.667 58.6665V56C18.667 55.2927 18.9479 54.6144 19.448 54.1143C19.9481 53.6142 20.6264 53.3333 21.3337 53.3333H42.667C43.3742 53.3333 44.0525 53.6142 44.5526 54.1143C45.0527 54.6144 45.3337 55.2927 45.3337 56V58.6665" stroke="#00477A" stroke-width="2.5" stroke-linecap="round" stroke-linejoin="round"/>
<path d="M45.3337 5.33325V7.99992C45.3337 8.70716 45.0527 9.38544 44.5526 9.88554C44.0525 10.3856 43.3742 10.6665 42.667 10.6665H21.3337C20.6264 10.6665 19.9481 10.3856 19.448 9.88554C18.9479 9.38544 18.667 8.70716 18.667 7.99992V5.33325" stroke="#00477A" stroke-width="2.5" stroke-linecap="round" stroke-linejoin="round"/>
</g>
</g>
</svg>
