<svg width="26" height="26" viewBox="0 0 26 26" fill="none" xmlns="http://www.w3.org/2000/svg">
<path fill-rule="evenodd" clip-rule="evenodd" d="M18.4593 16.9264C19.7942 15.2576 20.5924 13.1409 20.5924 10.8378C20.5924 5.45052 16.2251 1.08331 10.8379 1.08331C5.4507 1.08331 1.0835 5.45052 1.0835 10.8378C1.0835 16.225 5.4507 20.5922 10.8379 20.5922C13.1411 20.5922 15.2578 19.794 16.9266 18.4591L23.0666 24.5992C23.4899 25.0225 24.1762 25.0225 24.5994 24.5992C25.0227 24.176 25.0227 23.4897 24.5994 23.0664L18.4593 16.9264ZM10.8379 18.4354C6.64186 18.4354 3.24027 15.0338 3.24027 10.8378C3.24027 6.64168 6.64186 3.24009 10.8379 3.24009C15.034 3.24009 18.4356 6.64168 18.4356 10.8378C18.4356 15.0338 15.034 18.4354 10.8379 18.4354Z" fill="#F16E22"/>
</svg>
